<svg id="visual" viewBox="0 0 900 600" width="900" height="600" xmlns="http://www.w3.org/2000/svg" xmlns:xlink="http://www.w3.org/1999/xlink" version="1.1"><rect x="0" y="0" width="900" height="600" fill="#fff"></rect><path d="M0 135L37.5 129.7C75 124.3 150 113.7 225 125.7C300 137.7 375 172.3 450 185.2C525 198 600 189 675 178.8C750 168.7 825 157.3 862.5 151.7L900 146L900 0L862.5 0C825 0 750 0 675 0C600 0 525 0 450 0C375 0 300 0 225 0C150 0 75 0 37.5 0L0 0Z" fill="#da952e"></path><path d="M0 124L37.5 119.7C75 115.3 150 106.7 225 114.7C300 122.7 375 147.3 450 145C525 142.7 600 113.3 675 110.7C750 108 825 132 862.5 144L900 156L900 0L862.5 0C825 0 750 0 675 0C600 0 525 0 450 0C375 0 300 0 225 0C150 0 75 0 37.5 0L0 0Z" fill="#7f39ab"></path></svg>